<svg xmlns="http://www.w3.org/2000/svg" viewBox="0 0 1200 800" font-family="Inter, sans-serif">
  <defs><linearGradient id="header" x1="0" y1="0" x2="1" y2="0"><stop offset="0%" stop-color="#2874f0"/><stop offset="100%" stop-color="#1a5fc7"/></linearGradient></defs>
  <rect width="1200" height="800" fill="#f1f3f6"/>
  <rect width="1200" height="52" fill="url(#header)"/>
  <rect x="0" y="52" width="1200" height="36" fill="#1a5fc7"/>
  <rect x="24" y="14" width="80" height="24" rx="4" fill="white" opacity="0.9"/>
  <!-- Cart Items -->
  <text x="24" y="120" font-size="22" font-weight="700" fill="#212121">My Cart (3 items)</text>
  <rect x="24" y="136" width="700" height="80" rx="10" fill="white"/>
  <rect x="40" y="152" width="60" height="60" rx="8" fill="#e8eaf6"/>
  <text x="114" y="176" font-size="15" font-weight="600" fill="#212121">AI Starter Laptop</text>
  <text x="114" y="196" font-size="14" font-weight="600" fill="#2874f0">$899</text>
  <circle cx="570" cy="176" r="14" fill="none" stroke="#ddd"/>
  <text x="564" y="181" font-size="16" fill="#333">−</text>
  <text x="596" y="181" font-size="14" font-weight="600" fill="#333" text-anchor="middle">1</text>
  <circle cx="630" cy="176" r="14" fill="none" stroke="#ddd"/>
  <text x="624" y="181" font-size="16" fill="#333">+</text>
  <text x="670" y="181" font-size="16" font-weight="700" fill="#333">$899</text>
  <rect x="24" y="224" width="700" height="80" rx="10" fill="white"/>
  <rect x="40" y="240" width="60" height="60" rx="8" fill="#fff8e1"/>
  <text x="114" y="264" font-size="15" font-weight="600" fill="#212121">Kafka Event Kit</text>
  <text x="114" y="284" font-size="14" font-weight="600" fill="#2874f0">$149</text>
  <text x="586" y="269" font-size="14" font-weight="600" fill="#333" text-anchor="middle">2</text>
  <text x="670" y="269" font-size="16" font-weight="700" fill="#333">$298</text>
  <rect x="24" y="312" width="700" height="80" rx="10" fill="white"/>
  <rect x="40" y="328" width="60" height="60" rx="8" fill="#e8f5e9"/>
  <text x="114" y="352" font-size="15" font-weight="600" fill="#212121">Wireless Headphones</text>
  <text x="114" y="372" font-size="14" font-weight="600" fill="#2874f0">$299</text>
  <text x="586" y="357" font-size="14" font-weight="600" fill="#333" text-anchor="middle">1</text>
  <text x="670" y="357" font-size="16" font-weight="700" fill="#333">$299</text>
  <!-- Order Summary -->
  <rect x="750" y="104" width="300" height="280" rx="12" fill="white"/>
  <text x="770" y="136" font-size="18" font-weight="700" fill="#212121">Order Summary</text>
  <text x="770" y="170" font-size="14" fill="#555">Items</text><text x="1030" y="170" font-size="14" font-weight="600" fill="#333" text-anchor="end">3</text>
  <text x="770" y="198" font-size="14" fill="#555">Subtotal</text><text x="1030" y="198" font-size="14" font-weight="600" fill="#333" text-anchor="end">$1,496</text>
  <text x="770" y="226" font-size="14" fill="#555">Shipping</text><text x="1030" y="226" font-size="14" font-weight="600" fill="#388e3c" text-anchor="end">FREE</text>
  <line x1="770" y1="242" x2="1030" y2="242" stroke="#eee"/>
  <text x="770" y="270" font-size="18" font-weight="700" fill="#212121">Total</text><text x="1030" y="270" font-size="18" font-weight="700" fill="#212121" text-anchor="end">$1,496</text>
  <rect x="770" y="290" width="260" height="42" rx="8" fill="#fb641b"/>
  <text x="900" y="317" font-size="14" font-weight="600" fill="white" text-anchor="middle">Proceed to Checkout</text>
</svg>
