<svg xmlns="http://www.w3.org/2000/svg" viewBox="0 0 1200 800" font-family="Inter, sans-serif">
  <defs>
    <linearGradient id="header" x1="0" y1="0" x2="1" y2="0"><stop offset="0%" stop-color="#2874f0"/><stop offset="100%" stop-color="#1a5fc7"/></linearGradient>
    <linearGradient id="hero" x1="0" y1="0" x2="1" y2="1"><stop offset="0%" stop-color="#1a237e"/><stop offset="50%" stop-color="#2874f0"/><stop offset="100%" stop-color="#0d47a1"/></linearGradient>
  </defs>
  <rect width="1200" height="800" fill="#f1f3f6" rx="0"/>
  <rect width="1200" height="52" fill="url(#header)"/>
  <rect x="0" y="52" width="1200" height="36" fill="#1a5fc7"/>
  <rect x="24" y="14" width="80" height="24" rx="4" fill="white" opacity="0.9"/>
  <rect x="112" y="16" width="60" height="20" rx="4" fill="white" opacity="0.8"/>
  <rect x="350" y="10" width="400" height="32" rx="6" fill="white"/>
  <rect x="750" y="16" width="70" height="20" rx="4" fill="white" opacity="0.8"/>
  <rect x="830" y="12" width="70" height="28" rx="4" fill="white" opacity="0.9"/>
  <rect x="1090" y="10" width="32" height="32" rx="16" fill="#ffd54f"/>
  <!-- Hero Banner -->
  <rect x="24" y="104" width="1152" height="200" rx="16" fill="url(#hero)"/>
  <text x="48" y="148" font-size="36" font-weight="800" fill="white">AI-Powered E-Commerce Platform</text>
  <text x="48" y="180" font-size="15" fill="rgba(255,255,255,0.85)">Experience the future of shopping with RAG-powered AI assistant, real-time analytics, and intelligent recommendations</text>
  <rect x="48" y="200" width="140" height="42" rx="8" fill="#fb641b"/>
  <text x="118" y="226" font-size="14" font-weight="600" fill="white" text-anchor="middle">Shop Now</text>
  <rect x="200" y="200" width="160" height="42" rx="8" fill="rgba(255,255,255,0.15)"/>
  <text x="280" y="226" font-size="14" font-weight="600" fill="white" text-anchor="middle">Ask AI Assistant</text>
  <!-- Categories -->
  <text x="24" y="340" font-size="22" font-weight="700" fill="#212121">Shop by Category</text>
  <rect x="24" y="356" width="270" height="150" rx="12" fill="white"/>
  <rect x="24" y="356" width="270" height="90" fill="#e3f2fd" rx="12"/>
  <text x="159" y="490" font-size="14" font-weight="600" fill="#333" text-anchor="middle">Electronics</text>
  <rect x="310" y="356" width="270" height="150" rx="12" fill="white"/>
  <rect x="310" y="356" width="270" height="90" fill="#fff3e0" rx="12"/>
  <text x="445" y="490" font-size="14" font-weight="600" fill="#333" text-anchor="middle">Laptops</text>
  <rect x="596" y="356" width="270" height="150" rx="12" fill="white"/>
  <rect x="596" y="356" width="270" height="90" fill="#e8f5e9" rx="12"/>
  <text x="731" y="490" font-size="14" font-weight="600" fill="#333" text-anchor="middle">Accessories</text>
  <rect x="882" y="356" width="270" height="150" rx="12" fill="white"/>
  <rect x="882" y="356" width="270" height="90" fill="#f3e5f5" rx="12"/>
  <text x="1017" y="490" font-size="14" font-weight="600" fill="#333" text-anchor="middle">Books</text>
  <!-- Featured Products -->
  <rect x="24" y="530" width="270" height="240" rx="10" fill="white"/>
  <rect x="24" y="530" width="270" height="150" fill="#e8eaf6" rx="10"/>
  <rect x="36" y="690" width="60" height="14" rx="7" fill="#388e3c"/>
  <text x="80" y="700" font-size="12" font-weight="600" fill="white">Top Rated</text>
  <text x="36" y="722" font-size="14" font-weight="500" fill="#212121">AI Starter Laptop</text>
  <text x="36" y="742" font-size="18" font-weight="700" fill="#212121">$899</text>
  <rect x="310" y="530" width="270" height="240" rx="10" fill="white"/>
  <rect x="310" y="530" width="270" height="150" fill="#fff8e1" rx="10"/>
  <rect x="322" y="690" width="60" height="14" rx="7" fill="#388e3c"/>
  <text x="322" y="722" font-size="14" font-weight="500" fill="#212121">Kafka Event Kit</text>
  <text x="322" y="742" font-size="18" font-weight="700" fill="#212121">$149</text>
  <rect x="596" y="530" width="270" height="240" rx="10" fill="white"/>
  <rect x="596" y="530" width="270" height="150" fill="#e8f5e9" rx="10"/>
  <rect x="608" y="690" width="60" height="14" rx="7" fill="#388e3c"/>
  <text x="608" y="722" font-size="14" font-weight="500" fill="#212121">Wireless Headphones</text>
  <text x="608" y="742" font-size="18" font-weight="700" fill="#212121">$299</text>
  <rect x="882" y="530" width="270" height="240" rx="10" fill="white"/>
  <rect x="882" y="530" width="270" height="150" fill="#fce4ec" rx="10"/>
  <rect x="894" y="690" width="60" height="14" rx="7" fill="#388e3c"/>
  <text x="894" y="722" font-size="14" font-weight="500" fill="#212121">Smart Watch Pro</text>
  <text x="894" y="742" font-size="18" font-weight="700" fill="#212121">$199</text>
</svg>
