<svg xmlns="http://www.w3.org/2000/svg" viewBox="0 0 1200 800" font-family="Inter, sans-serif">
  <defs><linearGradient id="header" x1="0" y1="0" x2="1" y2="0"><stop offset="0%" stop-color="#2874f0"/><stop offset="100%" stop-color="#1a5fc7"/></linearGradient></defs>
  <rect width="1200" height="800" fill="#f1f3f6"/>
  <rect width="1200" height="52" fill="url(#header)"/>
  <rect x="0" y="52" width="1200" height="36" fill="#1a5fc7"/>
  <rect x="24" y="14" width="80" height="24" rx="4" fill="white" opacity="0.9"/>
  <!-- Auth Card -->
  <rect x="380" y="120" width="440" height="500" rx="16" fill="white"/>
  <text x="600" y="170" font-size="28" font-weight="800" fill="#212121" text-anchor="middle">Welcome Back</text>
  <text x="600" y="196" font-size="14" fill="#666" text-anchor="middle">Sign in to your AI Commerce account</text>
  <!-- Tabs -->
  <rect x="400" y="216" width="200" height="42" rx="6" fill="#2874f0"/>
  <text x="500" y="243" font-size="14" font-weight="600" fill="white" text-anchor="middle">Login</text>
  <rect x="600" y="216" width="200" height="42" rx="6" fill="#f5f5f5"/>
  <text x="700" y="243" font-size="14" font-weight="600" fill="#555" text-anchor="middle">Register</text>
  <!-- Form -->
  <text x="414" y="282" font-size="13" font-weight="600" fill="#333">Email Address</text>
  <rect x="414" y="290" width="372" height="42" rx="8" fill="white" stroke="#e0e0e0"/>
  <text x="430" y="317" font-size="14" fill="#999">Enter your email</text>
  <text x="414" y="352" font-size="13" font-weight="600" fill="#333">Password</text>
  <rect x="414" y="360" width="372" height="42" rx="8" fill="white" stroke="#e0e0e0"/>
  <text x="430" y="387" font-size="14" fill="#999">Enter password</text>
  <rect x="414" y="418" width="372" height="44" rx="8" fill="#fb641b"/>
  <text x="600" y="447" font-size="16" font-weight="600" fill="white" text-anchor="middle">Login</text>
  <!-- Demo Credentials -->
  <rect x="414" y="478" width="372" height="90" rx="8" fill="#f5f7fa"/>
  <text x="430" y="498" font-size="13" font-weight="700" fill="#333">Demo Credentials:</text>
  <text x="430" y="518" font-size="12" fill="#666">Email: admin@example.com / admin</text>
  <text x="430" y="538" font-size="12" fill="#666">Email: customer@example.com / demo</text>
  <text x="430" y="558" font-size="12" fill="#666">(Admin role access included)</text>
</svg>
