<svg xmlns="http://www.w3.org/2000/svg" viewBox="0 0 1200 800" font-family="Inter, sans-serif">
  <defs><linearGradient id="header" x1="0" y1="0" x2="1" y2="0"><stop offset="0%" stop-color="#2874f0"/><stop offset="100%" stop-color="#1a5fc7"/></linearGradient></defs>
  <rect width="1200" height="800" fill="#f1f3f6"/>
  <rect width="1200" height="52" fill="url(#header)"/>
  <rect x="0" y="52" width="1200" height="36" fill="#1a5fc7"/>
  <rect x="24" y="14" width="80" height="24" rx="4" fill="white" opacity="0.9"/>
  <rect x="112" y="16" width="50" height="20" rx="4" fill="white" opacity="0.8"/>
  <rect x="350" y="10" width="400" height="32" rx="6" fill="white"/>
  <!-- Sidebar Filters -->
  <rect x="24" y="104" width="240" height="500" rx="12" fill="white"/>
  <text x="40" y="132" font-size="18" font-weight="700" fill="#212121">Filters</text>
  <text x="40" y="162" font-size="13" font-weight="600" fill="#333">Search</text>
  <rect x="40" y="170" width="208" height="36" rx="8" fill="#f5f5f5" stroke="#e0e0e0"/>
  <text x="52" y="193" font-size="13" fill="#999">Search products...</text>
  <text x="40" y="228" font-size="13" font-weight="600" fill="#333">Category</text>
  <rect x="40" y="236" width="208" height="36" rx="8" fill="white" stroke="#e0e0e0"/>
  <text x="52" y="259" font-size="13" fill="#555">All Categories</text>
  <text x="40" y="294" font-size="13" font-weight="600" fill="#333">Price Range</text>
  <rect x="40" y="302" width="96" height="36" rx="8" fill="white" stroke="#e0e0e0"/>
  <text x="60" y="325" font-size="13" fill="#999">Min</text>
  <rect x="148" y="302" width="100" height="36" rx="8" fill="white" stroke="#e0e0e0"/>
  <text x="168" y="325" font-size="13" fill="#999">Max</text>
  <text x="40" y="360" font-size="13" font-weight="600" fill="#333">Sort By</text>
  <rect x="40" y="368" width="208" height="36" rx="8" fill="white" stroke="#e0e0e0"/>
  <text x="52" y="391" font-size="13" fill="#555">Name</text>
  <rect x="40" y="416" width="208" height="36" rx="8" fill="#f5f5f5" stroke="#e0e0e0"/>
  <text x="152" y="439" font-size="13" font-weight="600" fill="#333" text-anchor="middle">Clear Filters</text>
  <!-- Product Grid -->
  <text x="288" y="132" font-size="16" font-weight="600" fill="#333">6 Products Found</text>
  <rect x="288" y="150" width="220" height="200" rx="10" fill="white"/>
  <rect x="288" y="150" width="220" height="120" fill="#e8eaf6" rx="10"/>
  <text x="300" y="290" font-size="13" font-weight="500" fill="#212121">AI Starter Laptop</text>
  <text x="300" y="310" font-size="16" font-weight="700" fill="#212121">$899</text>
  <rect x="522" y="150" width="220" height="200" rx="10" fill="white"/>
  <rect x="522" y="150" width="220" height="120" fill="#fff8e1" rx="10"/>
  <text x="534" y="290" font-size="13" font-weight="500" fill="#212121">Kafka Event Kit</text>
  <text x="534" y="310" font-size="16" font-weight="700" fill="#212121">$149</text>
  <rect x="756" y="150" width="220" height="200" rx="10" fill="white"/>
  <rect x="756" y="150" width="220" height="120" fill="#e8f5e9" rx="10"/>
  <text x="768" y="290" font-size="13" font-weight="500" fill="#212121">Wireless Headphones</text>
  <text x="768" y="310" font-size="16" font-weight="700" fill="#212121">$299</text>
  <rect x="288" y="366" width="220" height="200" rx="10" fill="white"/>
  <rect x="288" y="366" width="220" height="120" fill="#fce4ec" rx="10"/>
  <text x="300" y="506" font-size="13" font-weight="500" fill="#212121">Smart Watch Pro</text>
  <text x="300" y="526" font-size="16" font-weight="700" fill="#212121">$199</text>
  <rect x="522" y="366" width="220" height="200" rx="10" fill="white"/>
  <rect x="522" y="366" width="220" height="120" fill="#f3e5f5" rx="10"/>
  <text x="534" y="506" font-size="13" font-weight="500" fill="#212121">Mechanical Keyboard</text>
  <text x="534" y="526" font-size="16" font-weight="700" fill="#212121">$159</text>
  <rect x="756" y="366" width="220" height="200" rx="10" fill="white"/>
  <rect x="756" y="366" width="220" height="120" fill="#e0f2f1" rx="10"/>
  <text x="768" y="506" font-size="13" font-weight="500" fill="#212121">USB-C Hub 7-in-1</text>
  <text x="768" y="526" font-size="16" font-weight="700" fill="#212121">$49</text>
</svg>
